<?xml version="1.0" encoding="UTF-8"?>
<svg version="1.1" viewBox="0 0 512 512" xmlns="http://www.w3.org/2000/svg">
 <path d="m353.22 189.78-63.6 182.4-2.8 8.4-2.8-8.4-57.6-178c-7.2-21.2 8.8-28 22.4-29.2 2.4-2.4 2.4-6.8 0-9.2-18.8 0.4-33.6 2-49.6 2-15.6 0-25.2-1.6-41.2-2-2.4 2.4-2.4 6.8 0 9.2 21.2 1.2 31.6 19.2 34.8 29.2l6 18.4c1.6 4.8 4 12.8 4 16.4s0 8.4-0.8 10l-50.4 132.4-4 9.6-2.4-9.6-60-184.4c-4.4-14 4.4-21.2 18.4-22 2.4-2.4 2.4-6.8 0-9.2-13.2 0.4-30.4 2-46 2-16 0-22.4-1.6-38.4-2-2.4 2.4-2.4 6.8 0 9.2 18 1.2 26.4 7.2 33.6 28.4l72.8 217.6c2 6.4 8.8 9.6 14.8 9.6 5.6 0 8-4 10-9.6l55.6-143.2c1.6-4.8 3.6-10 5.6-10 1.6 0 3.6 6 5.6 11.2l46.8 142c2.4 6.8 8.4 9.6 13.6 9.6 5.6 0 8.8-3.2 10.8-9.2l78.8-216.8c4.8-14 16.4-28.4 38.4-29.6 2.4-2.4 2.4-6.8 0-9.2-14.8 0.4-24.4 2-34.8 2s-28-1.6-44-2c-2.4 2.4-2.4 6.8 0 9.2 16.4 1.2 32.4 8 26.4 24.8z" aria-label="W"/>
 <text x="14.517478" y="191.54527" fill="#000000" font-family="'Linux Libertine Display O'" font-size="400px" xml:space="preserve"><tspan x="14.517478" y="191.54527" font-family="'Linux Libertine Display O'" font-size="400px"/></text>
 <path d="m250.68 93.787c0.53334 6.2666 0.8 11.467 0.8 16.8 1.3333-0.26667 2.5333-0.4 3.2-0.4 0.93334 0 1.6 0 2.5333 0.26666 3.4667 0.93334 6.9333 1.4667 11.6 1.4667 7.0666 0 20.267-3.6 20.267-16.133 0-8.6666-6.2666-12.933-14.933-16.267-7.6-2.9333-13.2-5.4667-13.2-12.4 0-5.2 4.2666-9.4666 9.4666-9.4666 4.6666 0 11.467 1.7333 13.067 12.533 0.8 0.66666 2 0.66666 2.8-0.13333 0.4-4.5333 0.53334-8.6666 0.66667-12.8-4-0.66666-9.8666-2.5333-16.533-2.5333-10.133 0-18 5.4667-18 14.267 0 9.3333 4.9333 13.067 14 16.933 10.4 4.5333 13.333 7.3333 13.333 12.8 0 6.2666-6.5333 10.267-11.2 10.267-4.9333 0-8.4-2.1333-9.7333-3.4667-3.0667-2.9333-4.8-8.6666-5.6-11.867-0.8-0.8-1.7333-0.66666-2.5333 0.13333zm67.733-24.933c5.0666-4.9333 10.8-7.4666 14.667-7.4666 4.8 0 8.2666 3.2 8.6666 11.6 0.26667 6.6666 0.26667 17.067 0 23.733-0.53333 10.4-1.0667 10.933-7.8666 11.467-0.66666 0.8-0.66666 2.2667 0 3.0667 4.2667-0.4 8.5333-0.66666 12.667-0.66666 4 0 7.4666 0.26666 12.267 0.66666 0.66667-0.8 0.66667-2.2667 0-3.0667-6.4-0.53333-7.2-1.0667-7.6-11.467-0.26666-6.6666-0.26666-15.2 0-21.867 0-1.7333 0-3.6-0.13333-5.0667 6.1333-6.8 12.8-8.4 17.733-8.4 4.8 0 7.7333 2.9333 8.1333 11.333 0.26667 6.6666 0.26667 17.333 0 24-0.53333 10.4-1.2 10.933-7.8666 11.467-0.66666 0.8-0.66666 2.2667 0 3.0667 3.3333-0.26666 8.5333-0.66666 12.667-0.66666s9.4666 0.4 12.8 0.66666c0.66666-0.8 0.66666-2.2667 0-3.0667-6.9333-0.53333-7.7333-1.0667-8.1333-11.467-0.26666-6.6666-0.26666-15.067 0-21.733 0.4-11.2-1.7333-20.267-12.933-20.267-6.5333 0-15.333 2.5333-22 9.4666-0.4 0.4-1.0667 0.93333-1.3333-0.13333-1.2-5.2-5.8666-9.3333-12.533-9.3333-7.3333 0-14.533 4.5333-20.133 10.4-0.4 0.4-1.3333 1.2-1.3333 0 0-3.8667 0.66666-9.7333 0.66666-9.7333 0-0.66666-0.53333-0.93333-1.6-0.93333-3.6 1.3333-8.1333 2.4-16.933 3.6-0.26667 0.8-0.13334 1.6 0.26666 2.2667 6.9333 0.66666 7.8666 1.3333 8.2666 8.6666 0.26666 6.6666 0.26666 21.067 0 27.733-0.53334 10.4-1.7333 10.933-8.6666 11.467-0.8 0.8-0.8 2.2667 0 3.0667 3.6-0.26666 9.3333-0.66666 13.467-0.66666 3.6 0 8.8 0.4 12.267 0.66666 0.8-0.8 0.8-2.2667 0-3.0667-6.4-0.66666-7.2-1.0667-7.6-11.467-0.26667-6.6666-0.26667-15.867 0-22.533 0-2.6667 1.0667-4.2667 2.1333-5.3333zm84.133 15.733c0 12.933 8.6666 27.333 26.667 27.333 8.1333 0 14.267-2.9333 18.667-7.2 5.7333-5.6 8.2666-13.6 8.2666-21.333 0-13.2-7.2-28.667-26.667-28.667-8.4 0-15.2 3.4667-19.867 8.9333-4.6666 5.4667-7.0666 12.933-7.0666 20.933zm25.067-26.8c10.933 0 18.4 11.333 18.4 29.6 0 16-8.9333 21.467-14.933 21.467-13.2 0-18.4-17.467-18.4-27.2 0-11.067 3.4667-23.867 14.933-23.867zm46.267 39.067c-0.26667 10.533-1.4667 10.933-9.2 11.333-0.93333 0.93333-0.8 2.4 0 3.0667 5.3333-0.13333 8.5333-0.66666 14-0.66666 5.4667 0 8.6666 0.53333 14.133 0.66666 0.66667-0.66666 0.8-2.1333 0-3.0667-7.7333-0.4-8.9333-0.79999-9.2-11.333-0.13334-4.9333-0.4-17.2-0.4-30.133 0-14.667 0.26666-30.133 0.4-36 0.13333-8.2666 0.53333-12 0.53333-12 0-0.93333-0.53333-1.2-1.7333-1.2-3.2 1.3333-12 2.9333-17.067 3.3333-0.26667 1.0667-0.4 1.7333 0.39999 2.5333 6.6666 0.4 7.6 1.0667 8.1333 10.4 0.13333 5.2 0.26666 17.2 0.26666 29.467 0 13.867-0.13333 28.133-0.26666 33.6z" aria-label="smol"/>
 <path d="m352.73 298.04c0 5.2 4.8 10.4 9.6 10.4 5.6 0 10.4-5.2 10.4-9.6 0-4.8-4.2-10.4-9.6-10.4-4.8 0-10.4 4.8-10.4 9.6zm19.2 98c-0.4-6-0.4-16-0.4-22s0-12.4 0.4-18.4c0.4-9.8 1.2-20.8 1.2-20.8 0-0.8-1-1.4-2.6-1.4-5.8 2.2-12.8 4-26.6 5.8-0.4 1.2 0 2.4 0.4 3.6 10.8 1.2 12.4 2 13 13.6 0.2 6 0.4 11.4 0.4 17.4s-0.4 16.2-0.4 22.2c-0.6 16.6-2.2 17.2-14.4 18.2-1.2 1.2-1.2 3.4 0 4.6 5.2-0.4 15.8-1 21.8-1 6.2 0 15.6 0.6 21.6 1 1.2-1.2 1.2-3.4 0-4.6-12.2-0.8-13.8-1.4-14.4-18.2zm34.4 1.2c-0.4 15.8-2.2 16.4-13.8 17-1.4 1.4-1.2 3.6 0 4.6 8-0.2 12.8-1 21-1s13 0.8 21.2 1c1-1 1.2-3.2 0-4.6-11.6-0.6-13.4-1.2-13.8-17-0.2-3.8-0.4-10.8-0.4-19.4 9.6 0.2 12.8 1.8 17.2 7.4l13.8 18.6c5.4 7.4 6.6 11.2 7.4 14 0.2 0.6 0.2 1 0.8 1 3-0.4 7.8-1 10.6-1 3 0 12 0.6 15.8 1 1.2-1.2 1.2-3.4 0-4.6-6.4-0.8-11.4-4-16.4-10.4l-25.2-31.6c-0.6-0.8-1.4-1.6-1.4-2.6 0-0.8 0-1.2 0.8-2l16.8-17.2c5.8-6.2 12.4-10 20-10.8 1.2-1.2 1.2-3.4 0-4.6-7 0.2-9.8 1-16.6 1-7.2 0-11.8-0.8-18.8-1-1.2 1.2-1.2 3.4 0 4.6 10.6 0.8 8.2 9.8 6.4 12-4.4 5.6-10.4 12-15.2 15.6-4.4 3.2-12.4 5.6-16 6-0.2-6.4-0.2-13.8-0.2-21.2 0-22 0.4-45.2 0.6-54 0.2-12.4 0.8-18 0.8-18 0-1.4-0.8-1.8-2.6-1.8-4.8 2-18 4.4-25.6 5-0.4 1.6-0.6 2.6 0.6 3.8 10 0.6 11.4 1.6 12.2 15.6 0.2 7.8 0.4 25.8 0.4 44.2 0 20.8-0.2 42.2-0.4 50.4z" aria-label="ik"/>
</svg>
