<?xml version="1.0" encoding="UTF-8"?>
<svg version="1.1" viewBox="0 0 512 512" xmlns="http://www.w3.org/2000/svg"><path d="m166.6 237.69c-23.2-3.2-22-10.8-61.2-10.8-40.4 0-76 26.8-76 69.2 0 37.6 26.4 55.6 57.6 68.8 25.2 11.2 66.8 20 66.8 65.6 0 32.4-19.2 53.2-50.8 53.2-37.6 0-65.6-20.8-74.4-60.8-4.8-1.6-5.2-0.8-8.8 1.2 1.6 30.8 3.2 41.2 8 60.8 25.2 0 36 9.2 71.6 9.2 18.4 0 35.6-4.4 49.6-12.8 22.8-14.4 37.6-39.2 37.6-64.8 0-38-26-56-55.2-68.4-19.2-8-74.4-23.6-74.4-62.8 0-22.4 21.2-48.8 44.4-48.8 39.2 0 55.6 28.8 63.6 55.2 4.4 0 5.2 0.4 8.8-2.4-1.2-19.2-2.8-30.4-7.2-51.6zm114 96c2.4-2.4 2.4-6.8 0-9.2-14 0.4-28 2-40 2s-23.6-1.6-33.6-2c-2.4 2.4-2.4 6.8 0 9.2 18 2 22.4 10 30.4 30l50 123.2c2.4 5.2 5.2 7.6 9.2 7.6 3.6 0 6-2.4 8.8-8.4l38.8-93.6 39.2 94.4c2.4 5.2 5.2 7.6 9.2 7.6 3.6 0 6.4-2.4 8.8-8l49.6-120.8c6.4-15.6 12.8-30.8 32.4-32 2.4-2.4 2.4-6.8 0-9.2-9.6 0.4-13.2 2-26.8 2-14.4 0-23.6-1.6-37.6-2-2.4 2.4-2.4 6.8 0 9.2 28.8 1.6 23.6 16.8 18.4 30.4l-32 79.6c-4 9.6-6.8 12.8-11.2 1.6l-32.8-83.6c-7.2-18-4.8-26.4 15.6-28 2.4-2.4 2.4-6.8 0-9.2-14 0.4-28 2-38.4 2-11.2 0-19.2-1.6-33.2-2-2.4 2.4-2.4 6.8 0 9.2 19.6 1.6 22.8 17.2 29.2 34.4l3.2 8.8-26.4 64.8c-5.2 12.4-8.8 13.2-13.6 0.8l-30.4-78.8c-7.2-18.4-5.2-28.8 13.2-30z" aria-label="Sw"/></svg>
